<svg width="86" height="110" viewBox="0 0 86 110" fill="none" xmlns="http://www.w3.org/2000/svg">
<path d="M12.0625 68.75C13.0117 68.75 13.7812 67.9805 13.7812 67.0312C13.7812 66.082 13.0117 65.3125 12.0625 65.3125C11.1133 65.3125 10.3438 66.082 10.3438 67.0312C10.3438 67.9805 11.1133 68.75 12.0625 68.75Z" fill="#F2F2F2"/>
<path d="M79.7812 55.8594C79.5735 55.7632 79.3487 55.7095 79.12 55.7014C78.8912 55.6932 78.6631 55.7309 78.4491 55.8121C78.2351 55.8933 78.0395 56.0165 77.8737 56.1744C77.708 56.3322 77.5754 56.5216 77.4838 56.7314C77.3923 56.9411 77.3435 57.1671 77.3404 57.396C77.3374 57.6248 77.38 57.852 77.466 58.0642C77.5519 58.2764 77.6793 58.4692 77.8408 58.6315C78.0023 58.7937 78.1945 58.9221 78.4062 59.009C79.8539 59.641 81.0398 60.7522 81.7646 62.1557C82.4894 63.5592 82.7089 65.1694 82.3862 66.7157C82.0636 68.262 81.2184 69.65 79.9928 70.6465C78.7672 71.643 77.2358 72.1871 75.6562 72.1875H72.2188V74.7656C72.2142 77.5885 71.143 80.3053 69.2197 82.3715C67.2964 84.4378 64.6633 85.7008 61.848 85.9074H24.152C21.3367 85.7008 18.7036 84.4378 16.7803 82.3715C14.857 80.3053 13.7858 77.5885 13.7812 74.7656V72.1875H10.3438C8.52039 72.1875 6.7717 71.4632 5.48239 70.1739C4.19308 68.8845 3.46875 67.1359 3.46875 65.3125C3.46875 63.4891 4.19308 61.7405 5.48239 60.4511C6.7717 59.1618 8.52039 58.4375 10.3438 58.4375V60.1563C10.3438 60.6121 10.5248 61.0493 10.8472 61.3716C11.1695 61.6939 11.6067 61.875 12.0625 61.875C12.5183 61.875 12.9555 61.6939 13.2778 61.3716C13.6002 61.0493 13.7812 60.6121 13.7812 60.1563V53.2813C13.7812 52.8254 13.6002 52.3882 13.2778 52.0659C12.9555 51.7436 12.5183 51.5625 12.0625 51.5625C11.6067 51.5625 11.1695 51.7436 10.8472 52.0659C10.5248 52.3882 10.3438 52.8254 10.3438 53.2813V55C7.60871 55 4.98568 56.0865 3.05171 58.0205C1.11774 59.9544 0.03125 62.5775 0.03125 65.3125C0.03125 68.0475 1.11774 70.6706 3.05171 72.6045C4.98568 74.5385 7.60871 75.625 10.3438 75.625H10.3689C10.5845 79.1747 12.085 82.5245 14.59 85.0487C17.0951 87.5729 20.4334 89.0987 23.9814 89.3413H36.125V94.5313C36.125 96.3546 36.8493 98.1033 38.1386 99.3926C39.428 100.682 41.1766 101.406 43 101.406C44.8234 101.406 46.572 100.682 47.8614 99.3926C49.1507 98.1033 49.875 96.3546 49.875 94.5313V89.3439H61.9625L62.0186 89.3402C65.5664 89.0977 68.9046 87.572 71.4096 85.048C73.9147 82.5241 75.4153 79.1745 75.6311 75.625H75.6562C78.0253 75.6244 80.322 74.8082 82.1601 73.3137C83.9983 71.8192 85.2659 69.7374 85.7499 67.4183C86.2339 65.0992 85.9048 62.6841 84.8178 60.5791C83.7308 58.4741 81.9523 56.8075 79.7812 55.8594ZM46.4375 94.5313C46.4375 95.4429 46.0753 96.3173 45.4307 96.9619C44.786 97.6066 43.9117 97.9688 43 97.9688C42.0883 97.9688 41.214 97.6066 40.5693 96.9619C39.9247 96.3173 39.5625 95.4429 39.5625 94.5313V89.3428H46.4375V94.5313Z" fill="#F2F2F2"/>
<path d="M47.203 70.7575C45.9593 71.5897 44.4965 72.034 43.0001 72.034C41.5037 72.034 40.0409 71.5897 38.7972 70.7575C38.6095 70.6297 38.3983 70.5403 38.1758 70.4946C37.9533 70.4488 37.724 70.4476 37.501 70.4911C37.2781 70.5345 37.0659 70.6217 36.8769 70.7476C36.6878 70.8736 36.5256 71.0357 36.3996 71.2247C36.2736 71.4137 36.1864 71.6258 36.1428 71.8487C36.0993 72.0716 36.1004 72.301 36.146 72.5235C36.1917 72.746 36.281 72.9572 36.4087 73.145C36.5365 73.3328 36.7003 73.4934 36.8905 73.6175C38.6983 74.8274 40.8247 75.4734 43.0001 75.4734C45.1755 75.4734 47.3019 74.8274 49.1097 73.6175C49.4841 73.3626 49.7426 72.9702 49.8292 72.5257C49.9159 72.0811 49.8235 71.6204 49.5723 71.2435C49.3211 70.8667 48.9313 70.6043 48.4876 70.5133C48.0439 70.4223 47.5823 70.51 47.203 70.7575Z" fill="#F2F2F2"/>
<path d="M18.9375 65.3125C18.9375 65.7683 19.1186 66.2055 19.4409 66.5278C19.7632 66.8502 20.2004 67.0313 20.6562 67.0313C21.1121 67.0313 21.5493 66.8502 21.8716 66.5278C22.1939 66.2055 22.375 65.7683 22.375 65.3125C22.375 64.8567 22.5561 64.4195 22.8784 64.0972C23.2007 63.7748 23.6379 63.5938 24.0938 63.5938C24.5496 63.5938 24.9868 63.7748 25.3091 64.0972C25.6314 64.4195 25.8125 64.8567 25.8125 65.3125C25.8125 65.7683 25.9936 66.2055 26.3159 66.5278C26.6382 66.8502 27.0754 67.0313 27.5312 67.0313C27.9871 67.0313 28.4243 66.8502 28.7466 66.5278C29.0689 66.2055 29.25 65.7683 29.25 65.3125C29.25 63.945 28.7068 62.6335 27.7398 61.6665C26.7728 60.6995 25.4613 60.1562 24.0938 60.1562C22.7262 60.1562 21.4147 60.6995 20.4477 61.6665C19.4807 62.6335 18.9375 63.945 18.9375 65.3125Z" fill="#F2F2F2"/>
<path d="M58.4688 67.0313C58.9246 67.0313 59.3618 66.8502 59.6841 66.5278C60.0064 66.2055 60.1875 65.7683 60.1875 65.3125C60.1875 64.8567 60.3686 64.4195 60.6909 64.0972C61.0132 63.7748 61.4504 63.5938 61.9062 63.5938C62.3621 63.5938 62.7993 63.7748 63.1216 64.0972C63.4439 64.4195 63.625 64.8567 63.625 65.3125C63.625 65.7683 63.8061 66.2055 64.1284 66.5278C64.4507 66.8502 64.8879 67.0313 65.3438 67.0313C65.7996 67.0313 66.2368 66.8502 66.5591 66.5278C66.8814 66.2055 67.0625 65.7683 67.0625 65.3125C67.0625 63.945 66.5193 62.6335 65.5523 61.6665C64.5853 60.6995 63.2738 60.1562 61.9062 60.1562C60.5387 60.1562 59.2272 60.6995 58.2602 61.6665C57.2932 62.6335 56.75 63.945 56.75 65.3125C56.75 65.7683 56.9311 66.2055 57.2534 66.5278C57.5757 66.8502 58.0129 67.0313 58.4688 67.0313Z" fill="#F2F2F2"/>
<path d="M56.75 49.8438C56.7494 49.3881 56.5681 48.9513 56.2459 48.6291C55.9237 48.3069 55.4869 48.1256 55.0312 48.125H32.7197C32.2639 48.125 31.8267 48.3061 31.5044 48.6284C31.1821 48.9507 31.001 49.3879 31.001 49.8438C31.001 50.2996 31.1821 50.7368 31.5044 51.0591C31.8267 51.3814 32.2639 51.5625 32.7197 51.5625H55.0312C55.4869 51.5619 55.9237 51.3806 56.2459 51.0584C56.5681 50.7362 56.7494 50.2994 56.75 49.8438Z" fill="#F2F2F2"/>
<path d="M4.36465 45.9207C5.5589 47.0736 6.92878 48.0294 8.42305 48.7524C11.1988 50.1231 14.5998 50.9717 18.8236 51.3477C18.8752 51.352 18.9268 51.3541 18.9762 51.3541C19.4193 51.3545 19.8454 51.1838 20.1657 50.8776C20.486 50.5714 20.6756 50.1533 20.695 49.7106C20.7144 49.268 20.5621 48.8349 20.2698 48.5018C19.9776 48.1687 19.568 47.9614 19.1266 47.9231C14.0799 47.4848 10.2406 46.26 7.71407 44.2879C6.37588 43.2637 5.31224 41.924 4.61817 40.3885C3.85547 38.7106 3.46875 36.6867 3.46875 34.375V27.6846C6.64502 29.8056 10.3787 30.9376 14.1981 30.9375H24.0938C24.5496 30.9381 24.987 30.7575 25.3097 30.4356C25.6325 30.1137 25.8141 29.6768 25.8147 29.2209C25.8152 28.7651 25.6347 28.3277 25.3128 28.0049C24.9908 27.6822 24.5539 27.5006 24.0981 27.5H14.1981C12.1111 27.5059 10.0437 27.0976 8.1157 26.2988C6.18767 25.5 4.43731 24.3266 2.96602 22.8465C2.80665 22.6865 2.61711 22.5596 2.40837 22.4733C2.19964 22.387 1.97587 22.343 1.75 22.3438C1.5243 22.3428 1.30072 22.3873 1.09258 22.4746C0.778009 22.604 0.509081 22.8241 0.320067 23.1069C0.131053 23.3897 0.0305111 23.7224 0.0312541 24.0625V34.375C0.0312541 37.1787 0.521098 39.6793 1.48789 41.8086C2.18216 43.3466 3.15784 44.7413 4.36465 45.9207Z" fill="#F2F2F2"/>
<path d="M25.8447 51.5625C26.794 51.5625 27.5635 50.793 27.5635 49.8438C27.5635 48.8945 26.794 48.125 25.8447 48.125C24.8955 48.125 24.126 48.8945 24.126 49.8438C24.126 50.793 24.8955 51.5625 25.8447 51.5625Z" fill="#F2F2F2"/>
<path d="M30.9709 92.9349H23.9715L23.8505 92.9521C20.5825 93.4356 17.596 95.0746 15.4332 97.5718C13.2703 100.069 12.0744 103.259 12.0625 106.562V108.281C12.0625 108.737 12.2436 109.174 12.5659 109.497C12.8882 109.819 13.3254 110 13.7812 110C14.2371 110 14.6743 109.819 14.9966 109.497C15.3189 109.174 15.5 108.737 15.5 108.281V106.562C15.5084 104.106 16.3902 101.732 17.9878 99.8649C19.5853 97.9982 21.7945 96.7603 24.2207 96.3724H30.9709C31.4267 96.3724 31.8639 96.1914 32.1862 95.869C32.5086 95.5467 32.6896 95.1095 32.6896 94.6537C32.6896 94.1978 32.5086 93.7607 32.1862 93.4383C31.8639 93.116 31.4267 92.9349 30.9709 92.9349Z" fill="#F2F2F2"/>
<path d="M62.1495 92.9521L62.0286 92.9349H55.0292C54.5733 92.9349 54.1362 93.116 53.8138 93.4383C53.4915 93.7607 53.3104 94.1978 53.3104 94.6537C53.3104 95.1095 53.4915 95.5467 53.8138 95.869C54.1362 96.1914 54.5733 96.3724 55.0292 96.3724H61.7793C64.2055 96.7603 66.4148 97.9982 68.0123 99.8649C69.6099 101.732 70.4916 104.106 70.5001 106.562V108.281C70.5001 108.737 70.6812 109.174 71.0035 109.497C71.3258 109.819 71.763 110 72.2188 110C72.6747 110 73.1118 109.819 73.4342 109.497C73.7565 109.174 73.9376 108.737 73.9376 108.281V106.562C73.9256 103.259 72.7297 100.069 70.5669 97.5718C68.404 95.0746 65.4176 93.4356 62.1495 92.9521Z" fill="#F2F2F2"/>
<path d="M30.2519 30.7175L72.2188 54.2874V60.1562C72.2188 60.6121 72.3999 61.0493 72.7223 61.3716C73.0446 61.6939 73.4818 61.875 73.9376 61.875C74.3934 61.875 74.8306 61.6939 75.1529 61.3716C75.4753 61.0493 75.6563 60.6121 75.6563 60.1562V17.0156C77.0146 16.7377 78.2855 16.1355 79.3607 15.2603C80.4359 14.3851 81.2835 13.2629 81.8314 11.9894C82.3792 10.7158 82.6109 9.32871 82.5069 7.94624C82.4028 6.56378 81.966 5.22698 81.2337 4.04981C80.409 2.72755 79.241 1.65385 77.8542 0.943165C77.6127 0.817337 77.3444 0.751737 77.0722 0.751954C76.6864 0.752215 76.3119 0.882117 76.0088 1.1208C75.7057 1.35948 75.4916 1.69309 75.4009 2.06807C75.3102 2.44304 75.3481 2.83762 75.5086 3.18844C75.6691 3.53927 75.9428 3.82598 76.2858 4.00254C77.1015 4.41978 77.7912 5.04681 78.2841 5.81912C78.777 6.59142 79.0552 7.4811 79.0901 8.39661C79.125 9.31213 78.9153 10.2204 78.4827 11.028C78.05 11.8356 77.41 12.5133 76.6285 12.9914C75.847 13.4696 74.9522 13.7308 74.0362 13.7483C73.1202 13.7659 72.216 13.539 71.4168 13.0911C70.6176 12.6432 69.9521 11.9904 69.4889 11.2C69.0257 10.4095 68.7815 9.50993 68.7813 8.59375C68.7813 8.50975 68.7835 8.43262 68.7856 8.36172C68.7944 7.91316 68.6275 7.47894 68.3204 7.15181C68.0134 6.82468 67.5907 6.63056 67.1424 6.61093C66.6942 6.5913 66.2561 6.7477 65.9216 7.04673C65.5872 7.34576 65.3829 7.76372 65.3524 8.21133C65.346 8.33809 65.3438 8.46699 65.3438 8.59375C65.3431 9.30349 65.4297 10.0106 65.6017 10.6992L30.3479 27.6702C30.0647 27.8065 29.8242 28.0179 29.6527 28.2815C29.4813 28.545 29.3854 28.8505 29.3755 29.1647C29.3656 29.4789 29.4421 29.7898 29.5966 30.0636C29.7511 30.3374 29.9778 30.5636 30.2519 30.7175ZM67.0976 13.7943C67.3326 14.1027 67.588 14.3951 67.862 14.6695C69.0502 15.8653 70.5665 16.6818 72.2188 17.0156V26.5354L57.6309 18.352L67.0976 13.7943ZM42.8293 25.4768L46.3022 27.4246C46.5581 27.5683 46.8466 27.6439 47.1401 27.6439H47.1423C47.5226 27.6441 47.8923 27.518 48.1934 27.2856C48.4944 27.0531 48.7099 26.7273 48.8059 26.3592C48.902 25.9912 48.8732 25.6017 48.7242 25.2517C48.5752 24.9018 48.3142 24.6111 47.9823 24.4254L46.611 23.6562L53.8484 20.1723L72.2188 30.4767V38.0207L59.9749 31.1523C59.778 31.042 59.5612 30.9716 59.3371 30.945C59.1129 30.9185 58.8857 30.9363 58.6685 30.9976C58.4512 31.0588 58.2481 31.1623 58.0709 31.302C57.8936 31.4417 57.7456 31.615 57.6352 31.8119C57.5249 32.0088 57.4545 32.2256 57.4279 32.4497C57.4014 32.6739 57.4192 32.9011 57.4805 33.1183C57.5417 33.3356 57.6452 33.5387 57.7849 33.7159C57.9246 33.8932 58.0979 34.0412 58.2948 34.1516L72.2188 41.9622V50.3448L34.8124 29.3361L42.8293 25.4768Z" fill="#F2F2F2"/>
<path d="M53.9785 27.79C53.6316 27.5957 53.2281 27.5276 52.8366 27.5974C52.4452 27.6673 52.09 27.8707 51.8317 28.173C51.5734 28.4753 51.4279 28.8578 51.42 29.2554C51.4121 29.6529 51.5423 30.0409 51.7884 30.3532C52.0345 30.6656 52.3813 30.8829 52.7696 30.9682C53.158 31.0535 53.564 31.0015 53.9183 30.8211C54.2726 30.6407 54.5535 30.343 54.7129 29.9787C54.8724 29.6145 54.9006 29.2062 54.7928 28.8234C54.7318 28.6061 54.6285 28.4028 54.4888 28.2255C54.349 28.0482 54.1756 27.9002 53.9785 27.79Z" fill="#F2F2F2"/>
<path d="M70.4828 4.36774C70.7851 4.36771 71.0821 4.28794 71.3437 4.13647C71.6054 3.98501 71.8224 3.76721 71.973 3.50506C72.1236 3.24291 72.2024 2.94567 72.2014 2.64336C72.2004 2.34104 72.1197 2.04433 71.9674 1.78317C71.8153 1.52385 71.5981 1.30875 71.3373 1.15915C71.0766 1.00955 70.7813 0.930644 70.4807 0.930237C70.1784 0.930289 69.8814 1.01007 69.6198 1.16152C69.3582 1.31297 69.1412 1.53074 68.9906 1.79286C68.84 2.05498 68.7613 2.35218 68.7622 2.65446C68.7632 2.95675 68.8439 3.25344 68.9961 3.51459C69.1481 3.77396 69.3653 3.98912 69.6261 4.13876C69.8868 4.2884 70.1822 4.36733 70.4828 4.36774Z" fill="#F2F2F2"/>
<path d="M73.9375 68.75C74.8867 68.75 75.6562 67.9805 75.6562 67.0312C75.6562 66.082 74.8867 65.3125 73.9375 65.3125C72.9883 65.3125 72.2188 66.082 72.2188 67.0312C72.2188 67.9805 72.9883 68.75 73.9375 68.75Z" fill="#F2F2F2"/>
</svg>

