<svg width="110" height="110" viewBox="0 0 110 110" fill="none" xmlns="http://www.w3.org/2000/svg">
<path d="M75.0038 68.9834C74.6607 68.0312 73.6106 67.5375 72.6585 67.8807C71.7063 68.2238 71.2126 69.2739 71.5558 70.226C71.5642 70.2493 71.5732 70.2725 71.5826 70.2956C73.2539 74.6572 73.3749 77.9926 71.9124 79.4587C70.1385 81.229 65.72 80.6756 60.0902 77.9816C52.5531 74.068 45.7021 68.9555 39.8049 62.8442C25.45 48.4874 19.527 34.4001 23.1904 30.7367C24.3594 29.8135 25.8789 29.4589 27.3358 29.7691C28.3451 29.8433 29.2236 29.085 29.2979 28.0757C29.3696 27.1001 28.6624 26.2401 27.6913 26.1221C25.1433 25.6713 22.5291 26.4142 20.5991 28.138C13.8844 34.8509 24.1489 52.3616 37.2136 65.4282C43.4035 71.8336 50.5961 77.1874 58.5087 81.2785C59.9415 81.9646 61.4182 82.5554 62.9289 83.047L49.9082 87.984C32.5212 81.3738 20.0046 65.9596 17.1043 47.5858C16.9474 46.5859 16.0095 45.9023 15.0096 46.0592C14.0097 46.2161 13.3261 47.154 13.483 48.1539C13.7708 49.9865 14.1556 51.8191 14.6266 53.6114C18.8467 69.6008 29.9617 82.8839 44.9564 89.857L23.5258 97.9663C23.4275 97.8023 23.3038 97.6552 23.1593 97.5302C17.7127 93.1573 14.2953 86.7443 13.703 79.7849L12.8526 69.4874C12.7857 68.4898 11.9226 67.7352 10.9247 67.8021C10.9057 67.8035 10.8867 67.8048 10.8679 67.8069C9.85903 67.8871 9.10606 68.7702 9.18623 69.779C9.18646 69.7832 9.18692 69.7875 9.18738 69.7916L10.0524 80.0855C10.6965 87.5243 14.1666 94.4333 19.7488 99.3921L4.46105 105.18L7.20998 93.8979C7.44983 92.914 6.84689 91.9221 5.86301 91.6823C4.87912 91.4424 3.88721 92.0454 3.64737 93.0293L0.0719296 107.69C-0.16906 108.673 0.432498 109.666 1.4157 109.906C1.77627 109.995 2.15493 109.971 2.50198 109.84L70.3089 84.1832C70.4168 84.1305 70.5187 84.0666 70.6131 83.9926C72.0806 83.7672 73.4411 83.0887 74.5038 82.0519C76.3197 80.2357 77.8829 76.4917 75.0038 68.9834Z" fill="white"/>
<path d="M92.2983 64.2571C82.3914 60.5484 71.6836 59.5086 61.2482 61.2425L54.7003 62.3421C53.7063 62.5331 53.0555 63.4936 53.2465 64.4876C53.4312 65.4479 54.3372 66.0941 55.305 65.956L61.8512 64.8656C71.6516 63.2361 81.7083 64.2134 91.0118 67.6988C91.2182 67.7719 91.4361 67.8085 91.6551 67.8069C92.6671 67.8085 93.4891 66.9896 93.4907 65.9773C93.492 65.211 93.0165 64.5249 92.2983 64.2571Z" fill="white"/>
<path d="M98.8132 35.8643C98.378 34.9503 97.2844 34.5622 96.3703 34.9975L57.8853 53.3237C56.9716 53.7587 56.5833 54.8521 57.0183 55.7661C57.0183 55.7663 57.0185 55.7666 57.0185 55.7666C57.4535 56.6803 58.5469 57.0686 59.4609 56.6336C59.4612 56.6336 59.4612 56.6334 59.4614 56.6334L97.9464 38.3072C98.8604 37.8719 99.2485 36.7783 98.8132 35.8643Z" fill="white"/>
<path d="M44.5274 12.438C44.3258 11.4461 43.3584 10.8053 42.3665 11.0069C41.3746 11.2085 40.7339 12.1759 40.9354 13.1678C40.9398 13.1898 40.9448 13.2116 40.9501 13.2333C43.2697 23.5966 42.3138 34.4246 38.214 44.2211L35.5494 50.6151C35.1643 51.5468 35.6039 52.6145 36.5335 53.0048C36.7561 53.0985 36.9955 53.1464 37.2372 53.1459C37.9769 53.1459 38.644 52.7015 38.9287 52.0189L41.5952 45.6322C45.9877 35.1384 47.0124 23.5393 44.5274 12.438Z" fill="white"/>
<path d="M100.818 65.9743C97.7818 65.9743 95.3203 68.4357 95.3203 71.4722C95.3203 74.5086 97.7818 76.97 100.818 76.97C103.855 76.97 106.316 74.5086 106.316 71.4722C106.316 68.4357 103.855 65.9743 100.818 65.9743ZM100.818 73.3048C99.8061 73.3048 98.9856 72.4842 98.9856 71.4722C98.9856 70.4601 99.8061 69.6395 100.818 69.6395C101.83 69.6395 102.651 70.4601 102.651 71.4722C102.651 72.4842 101.83 73.3048 100.818 73.3048Z" fill="white"/>
<path d="M56.8353 14.6609C53.7988 14.6609 51.3374 17.1224 51.3374 20.1588C51.3374 23.1952 53.7988 25.6567 56.8353 25.6567C59.8717 25.6567 62.3331 23.1952 62.3331 20.1588C62.3331 17.1224 59.8717 14.6609 56.8353 14.6609ZM56.8353 21.9914C55.8232 21.9914 55.0026 21.1709 55.0026 20.1588C55.0026 19.1467 55.8232 18.3262 56.8353 18.3262C57.8473 18.3262 58.6679 19.1467 58.6679 20.1588C58.6679 21.1709 57.8473 21.9914 56.8353 21.9914Z" fill="white"/>
<path d="M40.3416 7.33048C42.3659 7.33048 44.0069 5.68949 44.0069 3.66524C44.0069 1.64098 42.3659 0 40.3416 0C38.3174 0 36.6764 1.64098 36.6764 3.66524C36.6764 5.68949 38.3174 7.33048 40.3416 7.33048Z" fill="white"/>
<path d="M91.655 9.16309C90.6429 9.16309 89.8224 9.98364 89.8224 10.9957V12.8283C89.8224 13.8404 90.6429 14.6609 91.655 14.6609C92.6671 14.6609 93.4876 13.8404 93.4876 12.8283V10.9957C93.4876 9.98364 92.6671 9.16309 91.655 9.16309Z" fill="white"/>
<path d="M91.655 0C90.6429 0 89.8224 0.820555 89.8224 1.83262V3.66524C89.8224 4.6773 90.6429 5.49786 91.655 5.49786C92.6671 5.49786 93.4876 4.6773 93.4876 3.66524V1.83262C93.4876 0.820555 92.6671 0 91.655 0Z" fill="white"/>
<path d="M97.1529 5.49786H95.3203C94.3082 5.49786 93.4877 6.31842 93.4877 7.33048C93.4877 8.34255 94.3082 9.1631 95.3203 9.1631H97.1529C98.165 9.1631 98.9855 8.34255 98.9855 7.33048C98.9855 6.31842 98.165 5.49786 97.1529 5.49786Z" fill="white"/>
<path d="M87.9898 5.49786H86.1572C85.1451 5.49786 84.3246 6.31842 84.3246 7.33048C84.3246 8.34255 85.1451 9.1631 86.1572 9.1631H87.9898C89.0019 9.1631 89.8224 8.34255 89.8224 7.33048C89.8224 6.31842 89.0019 5.49786 87.9898 5.49786Z" fill="white"/>
<path d="M78.8267 20.1203H69.6251C68.613 20.1203 67.7925 20.9409 67.7925 21.9529V31.1545C67.7925 32.1666 68.613 32.9871 69.6251 32.9871H78.8267C79.8387 32.9871 80.6593 32.1666 80.6593 31.1545V21.9529C80.6593 20.9409 79.8387 20.1203 78.8267 20.1203ZM76.9941 29.3219H71.4577V23.7855H76.9941V29.3219Z" fill="white"/>
<path d="M65.4763 35.4236C64.8035 34.7055 63.6838 34.6468 62.9398 35.2907L44.6136 51.7843C43.8617 52.4615 43.801 53.6199 44.4779 54.372C45.1551 55.1238 46.3135 55.1845 47.0656 54.5076L65.3918 38.014C66.1306 37.322 66.1684 36.1624 65.4763 35.4236Z" fill="white"/>
<path d="M98.9856 42.1503C97.9735 42.1503 97.153 42.9708 97.153 43.9829V45.8155C97.153 46.8276 97.9735 47.6481 98.9856 47.6481C99.9976 47.6481 100.818 46.8276 100.818 45.8155V43.9829C100.818 42.9708 99.9976 42.1503 98.9856 42.1503Z" fill="white"/>
<path d="M106.761 41.835L105.466 40.5393C104.738 39.8361 103.578 39.8562 102.874 40.5842C102.189 41.2944 102.189 42.4203 102.874 43.1307L104.17 44.4263C104.898 45.1296 106.058 45.1094 106.761 44.3814C107.447 43.6711 107.447 42.5451 106.761 41.835Z" fill="white"/>
<path d="M108.149 34.8198H106.316C105.304 34.8198 104.483 35.6403 104.483 36.6524C104.483 37.6644 105.304 38.485 106.316 38.485H108.149C109.161 38.485 109.981 37.6644 109.981 36.6524C109.981 35.6403 109.161 34.8198 108.149 34.8198Z" fill="white"/>
<path d="M106.716 28.8784C106.006 28.1925 104.88 28.1925 104.17 28.8784L102.874 30.1741C102.159 30.8899 102.159 32.0502 102.875 32.7659C103.218 33.1092 103.684 33.3024 104.17 33.3024C104.656 33.3024 105.122 33.109 105.466 32.7654L106.761 31.4697C107.465 30.7417 107.444 29.5814 106.716 28.8784Z" fill="white"/>
<path d="M98.9856 25.6567C97.9735 25.6567 97.153 26.4772 97.153 27.4893V29.3219C97.153 30.334 97.9735 31.1545 98.9856 31.1545C99.9976 31.1545 100.818 30.334 100.818 29.3219V27.4893C100.818 26.4772 99.9976 25.6567 98.9856 25.6567Z" fill="white"/>
<path d="M95.0967 30.1741L93.801 28.8785C93.073 28.1754 91.913 28.1954 91.2097 28.9234C90.5238 29.6335 90.5238 30.7594 91.2097 31.4698L92.5054 32.7655C93.2334 33.4688 94.3934 33.4486 95.0967 32.7206C95.7828 32.0102 95.7828 30.8843 95.0967 30.1741Z" fill="white"/>
<path d="M21.9257 7.92424C21.7099 7.26129 21.1365 6.77839 20.4467 6.67806L15.068 5.89553L12.6691 1.02259C12.1344 0.11476 10.965 -0.187851 10.0572 0.346815C9.77815 0.511064 9.54563 0.743577 9.38138 1.02259L6.97149 5.89553L1.59275 6.67806C0.590997 6.82261 -0.103795 7.75197 0.0407533 8.75373C0.0982517 9.15255 0.285637 9.52114 0.573816 9.80267L4.46447 13.5962L3.54816 18.9529C3.37223 19.9497 4.03747 20.9003 5.03418 21.0763C5.43553 21.147 5.84878 21.0822 6.20912 20.8919L11.0197 18.3555L15.8304 20.8845C16.7263 21.3555 17.8343 21.0112 18.3053 20.1153C18.4929 19.7586 18.5575 19.3502 18.4895 18.9529L17.5732 13.5962L21.4657 9.80267C21.9639 9.31497 22.1421 8.58696 21.9257 7.92424ZM14.3185 11.6445C13.8869 12.0648 13.6896 12.6705 13.7907 13.2645L14.2452 15.9126L11.8719 14.6609C11.3384 14.3808 10.7011 14.3808 10.1676 14.6609L7.78517 15.9108L8.23966 13.2627C8.34252 12.671 8.14872 12.0662 7.72103 11.6445L5.79495 9.76968L8.45408 9.383C9.05105 9.29641 9.56717 8.92141 9.83404 8.38056L11.0197 5.97433L12.2073 8.38056C12.4739 8.92095 12.9891 9.29572 13.5854 9.383L16.2427 9.76968L14.3185 11.6445Z" fill="white"/>
<path d="M103.791 91.8601H103.783L103.028 90.7275C98.7946 84.3965 92.1374 80.0917 84.6269 78.8283C83.6249 78.6853 82.6967 79.3817 82.5537 80.3837C82.4156 81.3518 83.0618 82.2578 84.0221 82.4422C89.4393 83.3617 94.3762 86.1139 98.0068 90.2382C94.9544 90.7873 92.2847 92.6206 90.6764 95.2724C88.7026 98.8073 89.9683 103.273 93.5032 105.246C97.0381 107.22 101.503 105.954 103.477 102.42C104.231 100.964 104.638 99.3541 104.667 97.7153C106.616 100.547 106.772 104.246 105.068 107.232C104.552 108.103 104.839 109.227 105.709 109.743C106.58 110.26 107.704 109.973 108.22 109.102C108.237 109.074 108.253 109.046 108.268 109.017C111.623 103.023 109.647 95.4499 103.791 91.8601ZM100.281 100.631C99.303 102.403 97.0734 103.047 95.3012 102.069C93.5291 101.091 92.8851 98.8611 93.8633 97.089C93.8688 97.0791 93.8743 97.069 93.8798 97.0592C94.9613 95.2884 96.7854 94.1013 98.8425 93.8301C99.1612 93.8214 99.4766 93.8947 99.7588 94.0427C101.306 94.9059 101.388 98.6481 100.281 100.631Z" fill="white"/>
</svg>
