<svg width="110" height="110" viewBox="0 0 110 110" fill="none" xmlns="http://www.w3.org/2000/svg">
<path d="M91.2816 2.72198C91.2816 2.56186 91.1215 2.40175 90.9614 2.40175L88.5597 2.24163L87.599 0.160116C87.599 0 87.4388 0 87.2787 0C87.1186 0 86.9585 0.160116 86.9585 0.160116L85.8377 2.24163L83.596 2.56186C83.4359 2.56186 83.2758 2.72198 83.2758 2.8821C83.2758 3.04221 83.2758 3.20233 83.4359 3.36245L84.877 4.80349L84.3966 7.04512C84.3966 7.20524 84.3966 7.36536 84.5568 7.36536C84.7169 7.36536 84.877 7.52547 85.0371 7.36536L87.1186 6.24454L89.2001 7.36536H89.3602C89.5204 7.36536 89.5204 7.36536 89.5204 7.36536C89.6805 7.20524 89.6805 7.20524 89.6805 7.04512L89.3602 4.80349L91.1215 3.20233C91.2816 3.04221 91.2816 2.8821 91.2816 2.72198Z" fill="#F2F2F2"/>
<path d="M13.6252 19.0539L11.7038 17.9331L11.3835 15.6914C11.3835 15.5313 11.2234 15.3712 11.0633 15.3712C10.9032 15.3712 10.7431 15.3712 10.5829 15.5313L8.98178 17.2926L6.74015 16.9724C6.58003 16.9724 6.41991 16.9724 6.41991 17.1325C6.2598 17.2926 6.2598 17.4527 6.41991 17.6128L7.38061 19.3741L6.2598 21.4556C6.2598 21.6158 6.2598 21.7759 6.2598 21.936C6.2598 22.0961 6.58003 22.0961 6.58003 22.0961L8.82166 21.6158L10.4228 23.2169C10.4228 23.2169 10.5829 23.377 10.7431 23.377H10.9032C11.0633 23.377 11.2234 23.2169 11.2234 23.0568L11.5436 20.8152L13.6252 19.6944C13.7853 19.6944 13.7853 19.5342 13.7853 19.3741C13.7853 19.214 13.6252 19.0539 13.6252 19.0539Z" fill="#F2F2F2"/>
<path d="M106.973 88.064L105.051 86.7831L104.891 84.3813C104.891 84.2212 104.731 84.0611 104.731 84.0611C104.571 84.0611 104.411 84.0611 104.251 84.0611L102.49 85.5021L100.248 84.8617C100.088 84.8617 99.9277 84.8617 99.7675 85.0218C99.6074 85.1819 99.6074 85.342 99.7675 85.5021L100.568 87.5837L99.2872 89.5051C99.1271 89.6652 99.1271 89.8253 99.2872 89.9854C99.2872 90.1455 99.4473 90.1455 99.6074 90.1455L102.009 89.9854L103.45 91.7467C103.45 91.9068 103.61 91.9068 103.77 91.9068C103.77 91.9068 103.77 91.9068 103.931 91.9068C104.091 91.9068 104.251 91.7467 104.251 91.5866L104.891 89.3449L107.133 88.5444C107.293 88.5444 107.453 88.3842 107.453 88.2241C107.133 88.2241 107.133 88.064 106.973 88.064Z" fill="#F2F2F2"/>
<path d="M10.5828 70.7715C10.5828 70.6114 10.5828 70.4513 10.4226 70.4513L8.50125 69.1703L8.34113 66.7686C8.34113 66.6085 8.18101 66.4484 8.18101 66.4484C8.0209 66.4484 7.86078 66.4484 7.70066 66.4484L5.93938 67.8894L3.69775 67.4091C3.53764 67.4091 3.37752 67.4091 3.2174 67.5692C3.05729 67.7293 3.05729 67.8894 3.2174 68.0495L4.01798 70.131L2.73737 72.0524C2.57725 72.2126 2.57725 72.3727 2.73737 72.5328C2.73737 72.6929 2.89748 72.6929 3.0576 72.6929L5.45935 72.5328L6.90039 74.2941C6.90039 74.4542 7.06051 74.4542 7.22063 74.4542C7.22063 74.4542 7.22063 74.4542 7.38074 74.4542C7.54086 74.4542 7.70098 74.2941 7.70098 74.134L8.34144 71.8923L10.5831 71.0917C10.5828 71.0917 10.5828 70.9316 10.5828 70.7715Z" fill="#F2F2F2"/>
<path d="M22.5918 104.076C22.2716 104.076 22.2716 103.916 22.1115 103.916L19.7097 103.435L18.749 101.354C18.749 101.194 18.5889 101.194 18.4288 101.194C18.2687 101.194 18.1086 101.354 18.1086 101.354L16.9877 103.435L14.7461 103.755C14.586 103.755 14.4259 103.916 14.4259 104.076C14.4259 104.236 14.4259 104.396 14.586 104.556L16.1872 106.157L15.7068 108.399C15.7068 108.559 15.7068 108.719 15.8669 108.719C16.027 108.879 16.1872 108.879 16.3473 108.719L18.4288 107.598L20.5103 108.719H20.6704C20.8305 108.719 20.8305 108.719 20.8305 108.719C20.9907 108.559 20.9907 108.559 20.9907 108.399L20.6704 106.157L22.4317 104.556C22.5918 104.396 22.5918 104.236 22.5918 104.076Z" fill="#F2F2F2"/>
<path d="M54.615 0C53.6543 0 53.0139 0.640466 53.0139 1.60116V46.5939C53.0139 47.5546 53.8144 48.1951 54.615 48.1951C55.5757 48.1951 56.2162 47.5546 56.2162 46.5939V1.60116C56.2162 0.640466 55.5757 0 54.615 0Z" fill="#F2F2F2"/>
<path d="M54.615 70.7715C53.6543 70.7715 53.0139 71.4119 53.0139 72.3726V108.399C53.0139 109.36 53.6543 110 54.615 110C55.5757 110 56.2162 109.36 56.2162 108.399V72.3726C56.2162 71.4119 55.5757 70.7715 54.615 70.7715Z" fill="#F2F2F2"/>
<path d="M50.7722 40.6696L44.0473 21.936C43.727 21.1354 42.7663 20.6551 41.9657 20.9753C41.1652 21.2955 40.8449 22.2562 41.1652 23.0568L47.8901 41.7904C48.0502 42.4309 48.6906 42.9113 49.3311 42.9113C49.4912 42.9113 49.6513 42.9113 49.8115 42.7511C50.612 42.4309 51.0924 41.4702 50.7722 40.6696Z" fill="#F2F2F2"/>
<path d="M41.8058 16.492L39.404 10.7278C39.0838 9.92723 38.1231 9.44688 37.3225 9.76712C36.522 10.0873 36.0416 11.048 36.3618 11.8486L38.7636 17.7729C39.0838 18.4134 39.5642 18.7336 40.2046 18.7336C40.3647 18.7336 40.5249 18.7336 40.8451 18.5735C41.6457 18.2533 42.126 17.2926 41.8058 16.492Z" fill="#F2F2F2"/>
<path d="M67.9047 89.6652L59.2585 65.1674C58.9382 64.3668 57.9775 63.8865 57.1769 64.2067C56.3764 64.5269 55.896 65.4876 56.2162 66.2882L65.0227 90.786C65.1828 91.4265 65.8232 91.9069 66.4637 91.9069C66.6238 91.9069 66.7839 91.9069 66.9441 91.7467C67.7446 91.4265 68.225 90.4658 67.9047 89.6652Z" fill="#F2F2F2"/>
<path d="M52.3733 51.3974L23.5524 16.3319C22.9119 15.6914 21.9512 15.5313 21.3108 16.1718C20.6703 16.8122 20.5102 17.7729 21.1506 18.4134L49.9716 53.3188C50.2918 53.639 50.7722 53.9592 51.2525 53.9592C51.5728 53.9592 51.893 53.7991 52.2132 53.639C52.8537 52.9985 53.0138 52.0378 52.3733 51.3974Z" fill="#F2F2F2"/>
<path d="M88.0791 96.3901L65.6628 68.8501C65.0223 68.2096 64.0616 68.0495 63.4212 68.6899C62.7807 69.3304 62.6206 70.2911 63.2611 70.9316L85.6774 98.3115C85.9976 98.6317 86.4779 98.9519 86.9583 98.9519C87.2785 98.9519 87.5988 98.7918 87.919 98.6317C88.5598 97.9912 88.7199 97.0306 88.0791 96.3901Z" fill="#F2F2F2"/>
<path d="M40.685 46.1135L18.5889 32.8239C17.7883 32.3435 16.8276 32.6638 16.3473 33.3042C15.8669 34.2649 16.027 35.2256 16.8276 35.706L38.9237 48.9956C39.2439 49.1557 39.404 49.1558 39.7243 49.1558C40.2046 49.1558 40.8451 48.8355 41.1653 48.3552C41.6456 47.5546 41.3254 46.5939 40.685 46.1135Z" fill="#F2F2F2"/>
<path d="M94.1637 78.7773L58.1375 57.3217C57.3369 56.8413 56.3762 57.1616 55.8959 57.802C55.4155 58.6026 55.7357 59.5633 56.3762 60.0437L92.2423 81.4993C92.5625 81.6594 92.7227 81.6594 93.0429 81.6594C93.5232 81.6594 94.1637 81.3391 94.4839 80.8588C95.1241 80.2183 94.9643 79.2576 94.1637 78.7773Z" fill="#F2F2F2"/>
<path d="M40.2045 52.0379L4.49855 44.9927C3.69797 44.8326 2.73727 45.313 2.57716 46.2737C2.41704 47.2344 2.89739 48.035 3.85809 48.1951L39.5641 55.2402C39.7242 55.2402 39.7242 55.2402 39.8843 55.2402C40.6849 55.2402 41.3253 54.7599 41.4855 53.9593C41.6456 53.1587 41.1652 52.198 40.2045 52.0379Z" fill="#F2F2F2"/>
<path d="M102.009 64.687L70.9466 58.6026C69.9859 58.4425 69.1853 58.9228 69.0252 59.8835C68.865 60.6841 69.3454 61.6448 70.3061 61.8049L101.369 67.8894C101.529 67.8894 101.529 67.8894 101.689 67.8894C102.489 67.8894 103.13 67.409 103.29 66.6084C103.451 65.8078 102.97 64.8472 102.009 64.687Z" fill="#F2F2F2"/>
<path d="M85.9978 50.2766L64.222 53.4789C63.4214 53.639 62.781 54.4396 62.9411 55.2402C63.1012 56.0408 63.7417 56.6813 64.5422 56.6813H64.7024L86.4782 53.4789C87.2788 53.1587 87.7591 52.3581 87.7591 51.5575C87.599 50.7569 86.7984 50.1165 85.9978 50.2766Z" fill="#F2F2F2"/>
<path d="M48.2103 57.4818C48.0502 56.6812 47.2496 56.0407 46.449 56.2008L20.8304 59.8835C20.0298 60.0436 19.3894 60.8442 19.5495 61.6448C19.7096 62.4454 20.3501 63.0859 21.1506 63.0859H21.3108L46.9294 59.2431C47.73 59.0829 48.3704 58.2824 48.2103 57.4818Z" fill="#F2F2F2"/>
<path d="M95.765 50.4367C95.6049 49.6361 94.8043 48.9956 94.0038 49.1557L92.0824 49.476C91.2818 49.6361 90.6413 50.4367 90.8014 51.2373C90.9615 52.0378 91.602 52.6783 92.4026 52.6783C92.4026 52.5182 92.4026 52.5182 92.5627 52.5182L94.4841 52.198C95.2847 52.0378 95.9248 51.2373 95.765 50.4367Z" fill="#F2F2F2"/>
<path d="M17.1477 62.1252C16.9876 61.3246 16.187 60.6842 15.3865 60.8443L13.4651 61.0044C12.6645 61.1645 12.024 61.9651 12.1841 62.7657C12.3442 63.5663 12.9847 64.2067 13.7853 64.2067H13.9454L15.8668 63.8865C16.6674 63.7264 17.3079 62.9258 17.1477 62.1252Z" fill="#F2F2F2"/>
<path d="M100.889 31.543C100.408 30.7424 99.4477 30.4222 98.6471 30.9025L68.7053 47.0743C67.9047 47.5546 67.5845 48.5153 68.0649 49.3159C68.3851 49.7962 68.8654 50.1165 69.5059 50.1165C69.8261 50.1165 69.9863 50.1165 70.3065 49.9564L100.248 33.7846C101.049 33.3043 101.369 32.3436 100.889 31.543Z" fill="#F2F2F2"/>
<path d="M42.7664 63.246C42.2861 62.4454 41.3254 62.1252 40.5248 62.6055L10.5827 78.7773C9.78213 79.2576 9.46189 80.2183 9.94224 81.0189C10.2625 81.4992 10.7428 81.8195 11.3833 81.8195C11.7035 81.8195 11.8636 81.8195 12.1839 81.6594L42.1256 65.4876C42.9265 65.0073 43.2468 64.0466 42.7664 63.246Z" fill="#F2F2F2"/>
<path d="M85.1972 22.5764C84.5567 21.936 83.596 22.0961 82.9556 22.7365L56.8566 51.7176C56.2161 52.3581 56.3762 53.3188 57.0167 53.9593C57.3369 54.1194 57.6572 54.2795 58.1375 54.2795C58.6179 54.2795 58.9381 54.1194 59.2583 53.7991L85.3573 24.8181C85.9978 24.1776 85.8373 23.2169 85.1972 22.5764Z" fill="#F2F2F2"/>
<path d="M53.3341 57.9622C52.6936 57.3217 51.7329 57.4818 51.0925 58.1223L24.8334 86.9432C24.1929 87.5837 24.353 88.5444 24.9935 89.1849C25.3137 89.5051 25.634 89.6652 26.1143 89.6652C26.5947 89.6652 26.9149 89.5051 27.2351 89.1849L53.3341 60.2038C53.9746 59.5633 53.9746 58.6026 53.3341 57.9622Z" fill="#F2F2F2"/>
<path d="M23.8727 90.9461C23.2323 90.1455 22.2716 90.3056 21.6311 90.9461L18.749 94.1484C18.1085 94.7889 18.2686 95.7496 18.9091 96.3901C19.2293 96.7103 19.5496 96.8704 20.0299 96.8704C20.5103 96.8704 20.8305 96.7103 21.1507 96.3901L24.0328 93.1877C24.6733 92.5473 24.5132 91.5866 23.8727 90.9461Z" fill="#F2F2F2"/>
<path d="M92.4026 14.5706C91.7621 13.9301 90.8014 14.0902 90.1609 14.7307L87.2788 17.7729C86.6384 18.4134 86.7985 19.3741 87.439 20.0145C87.7592 20.3347 88.0794 20.4949 88.5598 20.4949C89.0401 20.4949 89.3604 20.3347 89.6806 20.0145L92.5627 16.8122C93.2032 16.1717 93.0427 15.211 92.4026 14.5706Z" fill="#F2F2F2"/>
<path d="M74.6296 8.00583C73.829 7.6856 72.8683 8.00583 72.5481 8.80641L61.8203 35.0655C61.34 36.0262 61.8203 36.8268 62.6209 37.147C62.781 37.3071 63.1012 37.3071 63.2614 37.3071C63.9018 37.3071 64.5423 36.9869 64.7024 36.3464L75.4302 10.0873C75.7504 9.28676 75.4302 8.32606 74.6296 8.00583Z" fill="#F2F2F2"/>
<path d="M51.733 65.8079C50.9324 65.4877 49.9717 65.8079 49.6514 66.6085L36.5219 98.3115C36.2017 99.1121 36.5219 100.073 37.3225 100.393C37.4826 100.553 37.8028 100.553 37.9629 100.553C38.6034 100.553 39.2439 100.233 39.404 99.5925L52.5335 67.8894C53.0139 67.0888 52.5335 66.2882 51.733 65.8079Z" fill="#F2F2F2"/>
</svg>
